<?xml version="1.0" encoding="UTF-8"?>
<svg id="Layer_2" data-name="Layer 2" xmlns="http://www.w3.org/2000/svg" xmlns:xlink="http://www.w3.org/1999/xlink" viewBox="0 0 343.17 400">
  <defs>
    <style>
      .cls-1 {
        fill: url(#New_Gradient_Swatch_1-2);
      }

      .cls-2 {
        fill: url(#linear-gradient);
      }

      .cls-3 {
        fill: url(#New_Gradient_Swatch_1);
      }

      .cls-4 {
        fill: #0a0a0a;
      }
    </style>
    <linearGradient id="New_Gradient_Swatch_1" data-name="New Gradient Swatch 1" x1="14.32" y1="212.55" x2="302.32" y2="212.55" gradientUnits="userSpaceOnUse">
      <stop offset="0" stop-color="#c8c8c8"/>
      <stop offset="1" stop-color="#f0f0f0"/>
    </linearGradient>
    <linearGradient id="linear-gradient" x1="313.72" y1="159.31" x2="44.07" y2="159.31" gradientUnits="userSpaceOnUse">
      <stop offset="0" stop-color="#f0f0f0"/>
      <stop offset="1" stop-color="#f8f8f8"/>
    </linearGradient>
    <linearGradient id="New_Gradient_Swatch_1-2" data-name="New Gradient Swatch 1" x1="28.63" y1="200" x2="604.65" y2="200" xlink:href="#New_Gradient_Swatch_1"/>
  </defs>
  <g id="Layer_1-2" data-name="Layer 1">
    <g>
      <path class="cls-3" d="M30.21,55.69c-1.14,1.52-1.81,3.41-1.81,5.44v195.58c0,45.83,96,94.31,139.8,112.04,2.17.88,4.61.89,6.78.01,25.02-10.08,66.98-30.16,98.32-54.05,2.44-1.91,5.04-3.82,7.3-5.74,8.27-6.74,15.49-13.76,21.15-20.94C171.85,271.55,65.82,178.59,30.21,55.69Z"/>
      <path class="cls-2" d="M308.82,277.58c1.51-2.74,2.77-5.48,3.73-8.24,1.08-3.1,1.79-6.22,2.09-9.32.1-1.04.14-2.08.14-3.12V61.12c0-.56-.05-1.1-.14-1.64-.19-1.07-.58-2.08-1.12-2.98-.26-.46-.58-.89-.91-1.28-1.37-1.6-3.28-2.72-5.48-3.08l-7.8-1.25-126.23-20.19c-.48-.07-.96-.12-1.44-.12s-.96.04-1.44.12l-121.19,19.38-12.99,2.08c-2.41.38-4.48,1.7-5.84,3.54,35.61,122.89,141.63,215.87,271.53,232.35.41-.52.83-1.03,1.21-1.55,1.79-2.32,5.06-7.45,5.88-8.92Z"/>
      <path class="cls-1" d="M320.96,23.57L175.85.34c-1.38-.22-2.77-.34-4.18-.34h-.11c-.63.04-3.09.19-4.04.34L36.28,21.32l-14.06,2.24C9.35,25.63,0,36.58,0,49.63v211.79c0,15.63,7.06,31.77,20.97,47.97,10.59,12.33,25.46,25.04,44.16,37.77,39.72,27.03,83.97,45.8,96.58,50.91,2.86,1.15,5.86,1.79,8.93,1.91.31.01.62.02.94.02v-.02h.02c3.38,0,6.7-.64,9.84-1.91,31.41-12.65,76.89-35.24,110.3-60.71.06-.05.13-.1.19-.14.83-.65,1.68-1.3,2.52-1.96,1.88-1.44,3.83-2.94,5.72-4.54,11.03-9.01,20.06-18.12,26.85-27.08,2.4-3.17,6.4-9.41,7.63-11.65,2.11-3.82,3.85-7.68,5.18-11.48,2.21-6.35,3.34-12.71,3.34-18.92V49.61c0-13.03-9.33-23.99-22.21-26.05ZM326.64,261.6c0,4.5-.85,9-2.41,13.47-1.04,2.99-2.4,5.98-4.04,8.93-.88,1.6-4.44,7.15-6.35,9.67-6.31,8.34-14.64,16.51-24.23,24.33-2.45,2.06-5.27,4.14-7.9,6.2-33.93,25.87-79.37,47.62-106.46,58.53-1.18.47-2.42.71-3.66.71h-.02v.02c-.3-.01-.61-.04-.92-.06-.92-.1-1.85-.31-2.72-.67-47.43-19.2-151.39-71.69-151.39-121.32V49.63c0-4.84,3.52-8.96,8.29-9.72l14.06-2.24,131.24-21c.16-.02,1.04-.11,1.45-.12h.1c.52,0,1.04.04,1.56.12l145.11,23.23c4.78.77,8.29,4.88,8.29,9.72v211.98Z"/>
      <path class="cls-4" d="M326.64,49.61c0-4.84-3.52-8.96-8.29-9.72l-145.11-23.23c-.52-.08-1.03-.12-1.56-.12h-.11c-.41.01-1.3.1-1.45.12L38.9,37.65l-14.06,2.24c-4.78.77-8.29,4.88-8.29,9.72v211.79c0,49.64,103.96,102.12,151.39,121.32.88.36,1.8.58,2.72.67.31.04.62.05.94.05h.02c1.25,0,2.48-.24,3.66-.71,27.09-10.91,72.52-32.66,106.46-58.53,2.63-2.06,5.45-4.14,7.9-6.2,9.59-7.82,17.91-15.99,24.23-24.33,1.91-2.52,5.46-8.08,6.35-9.67,1.63-2.96,3-5.94,4.04-8.93,1.56-4.48,2.41-8.98,2.41-13.47V49.61h-.02ZM314.77,256.88c0,1.04-.05,2.08-.14,3.12-.29,3.12-1,6.23-2.09,9.32-.96,2.76-2.22,5.52-3.73,8.24-.82,1.48-4.09,6.6-5.86,8.93-5.83,7.7-13.51,15.25-22.38,22.47-2.26,1.91-4.86,3.82-7.3,5.74-31.34,23.89-73.29,43.98-98.32,54.05-1.08.43-2.23.66-3.38.66s-2.3-.22-3.4-.66c-43.8-17.73-139.8-66.21-139.8-112.04V61.13c0-4.46,3.25-8.28,7.66-8.98l12.99-2.08,121.19-19.38c.48-.07.96-.12,1.44-.12s.96.04,1.44.12l126.21,20.21,7.8,1.25c2.21.35,4.12,1.48,5.48,3.08.34.4.65.83.91,1.28.54.91.91,1.91,1.12,2.98.1.53.14,1.08.14,1.64v195.73Z"/>
      <path class="cls-4" d="M182.32,158.12c5.58-.01,10.09-4.54,10.09-10.11s-4.52-10.11-10.11-10.11l-78.29-.02c-.79,0-1.43.64-1.43,1.43v8.74c0,5.42,4.26,9.87,9.6,10.19.05,0,70.13-.1,70.14-.1Z"/>
      <path class="cls-4" d="M201.57,78.68h0c-.6-.01-82.91-.02-82.91-.02-.79,0-1.43.64-1.43,1.43v8.74c0,5.42,4.26,9.87,9.61,10.19.06,0,70.43-.16,70.43-.16h0c2.63,0,5.05.12,5.05.12,25.95,1.26,46.61,22.8,46.61,49.06s-21.06,48.01-47.37,48.88h0c-.68.01-74.14-.04-74.14-.04-.5,0-1,.04-1.49.11-4.66.68-8.28,4.54-8.6,9.3v100.12c0,.79.64,1.43,1.43,1.43h8.74c5.42,0,9.87-4.26,10.19-9.61,0-.04.04-79.61.04-79.61v-.06c.04-.7.62-1.24,1.32-1.24.01,0,64.01-.05,64.01-.05,5.51-.25,10.85-1.14,15.95-2.59,29.07-8.29,50.35-34.9,50.35-66.63.01-37.81-30.19-68.49-67.78-69.36Z"/>
    </g>
  </g>
</svg>