<svg version="1.1" xmlns="http://www.w3.org/2000/svg" xmlns:xlink="http://www.w3.org/1999/xlink" viewBox="0 0 1029.74 348.79" style="background-image: none !important;" nighteye="active"><style xmlns="">                    *::-webkit-scrollbar-track-piece {                        background-color:rgba(255, 255, 255, 0.2) !important;                    }                    *::-webkit-scrollbar-track {                        background-color:rgba(255, 255, 255, 0.3) !important;                    }                    *::-webkit-scrollbar-thumb {                        background-color:rgba(255, 255, 255, 0.5) !important;                    }                    a { color: rgb(140, 140, 250); }                    .pdfViewer,                    embed[type="application/pdf"] {                        filter:invert(90%);                    }</style><style xmlns="" id="nighteyedefaultcss">html {
                            color:#bfbfbf !important;
                            background-image:none !important;
                            background:#1f1f1f !important;
                        }
                        body,
                        body &gt; .container {
                            background-color:#1f1f1f;
                            background-image:none !important;
                        }
                        input, select, textarea, button {
                            color:#bfbfbf;
                            background-color:#1f1f1f;
                            border-color: #616161 !important;
                        }
                        input[type="radio"]::before,
                        input[type="radio"]::after {
                            background-color: #616161 !important;
                        }
                        text {
                            fill:#bfbfbf;
                        }
                        font {
                            color:#bfbfbf;
                        }
                        </style><style xmlns="">                        .NIGHTEYE_Filter {                            width:100%; height:100%;                            position:fixed;                            left:0; top:0;                            pointer-events:none;                            z-index:4000000000;                        }                        .NIGHTEYE_YellowFilter {                            background:rgba(255, 255, 0, 0.15);                            opacity:0;                        }                        .NIGHTEYE_BlueFilter {                            background:rgba(0, 0, 255, 0.15);                            opacity:0;                        }                        .NIGHTEYE_DimFilter {                            background:rgba(0, 0, 0, 0.5);                            opacity:0;                        }                        .NIGHTEYE_TransformZ {                            transform:translateZ(0);                        }</style><script xmlns=""/>
<style type="text/css">
	.st0{fill:url(#SVGID_1_);}
	.st1{fill:url(#SVGID_2_);}
	.st2{fill:url(#SVGID_3_);}
	.st3{fill:url(#SVGID_4_);}
	.st4{fill:#FFFFFF;}
</style>
<g>
	<g>
		<g>
			<linearGradient id="SVGID_1_" gradientUnits="userSpaceOnUse" x1="31.4679" y1="184.856" x2="270.145" y2="184.856">
				<stop offset="0" style="stop-color:#2A1B42"/>
				<stop offset="1" style="stop-color:#4D3077"/>
			</linearGradient>
			<path class="st0" d="M32.98,54.12c-0.95,1.27-1.51,2.84-1.51,4.53v163c0,38.2,80.01,78.6,116.51,93.38     c1.81,0.73,3.84,0.74,5.65,0.01c20.85-8.4,55.82-25.14,81.94-45.05c2.03-1.59,4.2-3.18,6.08-4.78     c6.89-5.62,12.91-11.47,17.63-17.45C151.02,234.03,62.66,156.55,32.98,54.12z"/>
			<linearGradient id="SVGID_2_" gradientUnits="userSpaceOnUse" x1="32.9786" y1="140.486" x2="270.145" y2="140.486">
				<stop offset="0" style="stop-color:#4D3077"/>
				<stop offset="1" style="stop-color:#662D91"/>
			</linearGradient>
			<path class="st1" d="M265.18,239.05c1.26-2.28,2.31-4.57,3.11-6.87c0.9-2.58,1.49-5.18,1.74-7.77c0.08-0.87,0.12-1.73,0.12-2.6     V58.65c0-0.47-0.04-0.92-0.12-1.37c-0.16-0.89-0.48-1.73-0.93-2.48c-0.22-0.38-0.48-0.74-0.76-1.07     c-1.14-1.33-2.73-2.27-4.57-2.57l-6.5-1.04L152.07,33.29c-0.4-0.06-0.8-0.1-1.2-0.1c-0.4,0-0.8,0.03-1.2,0.1l-101,16.15     l-10.83,1.73c-2.01,0.32-3.73,1.42-4.87,2.95c29.68,102.42,118.04,179.91,226.3,193.65c0.34-0.43,0.69-0.86,1.01-1.29     C261.77,244.55,264.5,240.27,265.18,239.05z"/>
			<g>
				<g>
					<linearGradient id="SVGID_3_" gradientUnits="userSpaceOnUse" x1="150.7965" y1="174.3927" x2="293.8144" y2="174.3927">
						<stop offset="0" style="stop-color:#4D3077"/>
						<stop offset="1" style="stop-color:#662D91"/>
					</linearGradient>
					<path class="st2" d="M275.3,27.35L154.36,7.99c-1.15-0.18-2.31-0.28-3.48-0.28c-0.02,0-0.05,0-0.09,0V21.5       c0.03,0,0.06,0,0.09,0c0.43,0,0.87,0.03,1.3,0.1l120.94,19.36c3.98,0.64,6.91,4.07,6.91,8.1v176.67c0,3.75-0.71,7.5-2.01,11.23       c-0.87,2.49-2,4.98-3.37,7.44c-0.73,1.33-3.7,5.96-5.29,8.06c-5.26,6.95-12.2,13.76-20.19,20.28       c-2.04,1.72-4.39,3.45-6.58,5.17c-28.28,21.56-66.15,39.69-88.73,48.78c-0.98,0.39-2.02,0.59-3.05,0.59c-0.01,0-0.01,0-0.02,0       v13.78c0.01,0,0.01,0,0.02,0c2.82,0,5.58-0.53,8.2-1.59c26.18-10.54,64.08-29.37,91.93-50.6c0.05-0.04,0.11-0.08,0.16-0.12       c0.69-0.54,1.4-1.08,2.1-1.63c1.57-1.2,3.19-2.45,4.77-3.78c9.19-7.51,16.72-15.1,22.38-22.57c2-2.64,5.33-7.84,6.36-9.71       c1.76-3.18,3.21-6.4,4.32-9.57c1.84-5.29,2.78-10.59,2.78-15.77V49.06C293.81,38.2,286.03,29.07,275.3,27.35z"/>
				</g>
				<linearGradient id="SVGID_4_" gradientUnits="userSpaceOnUse" x1="7.7988" y1="174.3935" x2="150.7965" y2="174.3935">
					<stop offset="0" style="stop-color:#2A1B42"/>
					<stop offset="1" style="stop-color:#4D3077"/>
				</linearGradient>
				<path class="st3" d="M150.02,327.25c-0.77-0.08-1.54-0.26-2.27-0.56c-39.53-16-126.17-59.75-126.17-101.11V49.07      c0-4.03,2.93-7.47,6.91-8.1l11.72-1.87L149.59,21.6c0.13-0.02,0.87-0.09,1.21-0.1V7.72c-0.51,0.02-2.58,0.15-3.38,0.27      L38.04,25.48l-11.72,1.87C15.59,29.07,7.8,38.2,7.8,49.07v176.51c0,13.03,5.88,26.48,17.48,39.98      c8.83,10.28,21.22,20.87,36.8,31.48c33.1,22.53,69.98,38.17,80.49,42.43c2.38,0.96,4.88,1.49,7.44,1.59      c0.26,0.01,0.52,0.02,0.78,0.02v-13.78C150.54,327.29,150.28,327.27,150.02,327.25z"/>
			</g>
			<path class="st4" d="M280.03,49.06c0-4.03-2.93-7.47-6.91-8.1L152.18,21.6c-0.43-0.07-0.86-0.1-1.3-0.1c-0.02,0-0.06,0-0.09,0     c-0.34,0.01-1.08,0.08-1.21,0.1L40.22,39.09l-11.72,1.87c-3.98,0.64-6.91,4.07-6.91,8.1v176.51     c0,41.37,86.64,85.11,126.17,101.11c0.73,0.3,1.5,0.48,2.27,0.56c0.26,0.03,0.52,0.04,0.78,0.04c0.01,0,0.01,0,0.02,0     c1.04,0,2.07-0.2,3.05-0.59c22.58-9.09,60.44-27.22,88.73-48.78c2.19-1.72,4.54-3.45,6.58-5.17     c7.99-6.52,14.93-13.33,20.19-20.28c1.59-2.1,4.55-6.73,5.29-8.06c1.36-2.47,2.5-4.95,3.37-7.44c1.3-3.73,2.01-7.48,2.01-11.23     V49.06z M270.14,221.8c0,0.87-0.04,1.73-0.12,2.6c-0.24,2.6-0.83,5.19-1.74,7.77c-0.8,2.3-1.85,4.6-3.11,6.87     c-0.68,1.23-3.41,5.5-4.88,7.44c-4.86,6.42-11.26,12.71-18.65,18.73c-1.88,1.59-4.05,3.18-6.08,4.78     c-26.12,19.91-61.08,36.65-81.94,45.05c-0.9,0.36-1.86,0.55-2.82,0.55c-0.96,0-1.92-0.18-2.83-0.55     c-36.5-14.78-116.51-55.18-116.51-93.38v-163c0-3.72,2.71-6.9,6.38-7.48l10.83-1.73l101-16.15c0.4-0.06,0.8-0.1,1.2-0.1     c0.4,0,0.8,0.03,1.2,0.1l105.19,16.84l6.5,1.04c1.84,0.29,3.43,1.23,4.57,2.57c0.28,0.33,0.54,0.69,0.76,1.07     c0.45,0.76,0.76,1.59,0.93,2.48c0.08,0.44,0.12,0.9,0.12,1.37V221.8z"/>
			<path class="st4" d="M159.75,139.49c4.65-0.01,8.41-3.78,8.41-8.43c0-4.66-3.77-8.43-8.43-8.43l-65.25-0.02     c-0.66,0-1.19,0.53-1.19,1.19c0,2.33,0,7.24,0,7.28c0,4.52,3.55,8.23,8,8.49C101.33,139.57,159.74,139.49,159.75,139.49z"/>
			<path class="st4" d="M175.79,73.28L175.79,73.28c-0.5-0.01-69.1-0.02-69.1-0.02c-0.66,0-1.19,0.53-1.19,1.19     c0,2.33,0,7.24,0,7.28c0,4.52,3.55,8.23,8.01,8.49c0.05,0,58.7-0.13,58.7-0.13h0c2.19,0,4.21,0.1,4.21,0.1     c21.63,1.05,38.85,19,38.85,40.89c0,22.1-17.55,40.01-39.48,40.74v-0.01c-0.57,0.02-61.79-0.02-61.79-0.02     c-0.42,0-0.83,0.03-1.24,0.09c-3.88,0.57-6.9,3.78-7.17,7.75c0,0,0,83.44,0,83.44c0,0.66,0.53,1.19,1.19,1.19     c2.33,0,7.24,0,7.28,0c4.52,0,8.23-3.55,8.49-8.01c0-0.03,0.03-66.35,0.03-66.35c0-0.02,0-0.03,0-0.05     c0.03-0.58,0.52-1.03,1.1-1.03c0.01,0,53.35-0.04,53.35-0.04c4.59-0.21,9.04-0.95,13.29-2.16c24.23-6.91,41.96-29.09,41.96-55.53     C232.29,99.58,207.12,74.01,175.79,73.28z"/>
		</g>
	</g>
	<g>
		<path class="st4" d="M443.48,62.34c48.08,0,75.63,23.77,75.63,65.64c0,44.04-27.55,69.43-75.63,69.43h-34.15    c-1.88,0-3.4,1.52-3.4,3.4v47.23c0,1.88-1.52,3.4-3.4,3.4h-35.89c-1.88,0-3.4-1.52-3.4-3.4V65.74c0-1.88,1.52-3.4,3.4-3.4H443.48z     M405.93,158.35c0,1.88,1.52,3.4,3.4,3.4h31.99c23.77,0,37.28-10.81,37.28-32.41c0-21.07-13.5-31.61-37.28-31.61h-31.99    c-1.88,0-3.4,1.52-3.4,3.4V158.35z"/>
		<path class="st4" d="M555.58,248.03V65.74c0-1.88,1.52-3.4,3.4-3.4h35.89c1.88,0,3.4,1.52,3.4,3.4v182.29c0,1.88-1.52,3.4-3.4,3.4    h-35.89C557.1,251.43,555.58,249.91,555.58,248.03z"/>
		<path class="st4" d="M1018.54,251.43h-42.81c-1.1,0-2.14-0.53-2.77-1.43l-40.76-57.55c-1.36-1.92-4.22-1.91-5.56,0.02    l-39.99,57.51c-0.64,0.91-1.68,1.46-2.79,1.46H842.2c-2.75,0-4.36-3.1-2.78-5.35l62.7-89.43c0.81-1.16,0.82-2.7,0.02-3.87    L843.9,67.66c-1.54-2.25,0.07-5.32,2.8-5.32h41.47c1.12,0,2.17,0.55,2.81,1.48l35.63,52.22c1.35,1.97,4.25,1.98,5.61,0.01    l35.89-52.24c0.63-0.92,1.68-1.47,2.8-1.47h42.23c2.74,0,4.36,3.08,2.79,5.34l-57.88,83.22c-0.81,1.16-0.81,2.71,0,3.88    l63.3,91.33C1022.9,248.35,1021.28,251.43,1018.54,251.43z"/>
		<path class="st4" d="M815.22,62.33h-36.64c-1.43,0-2.7,0.89-3.19,2.24l-47.85,131.59c-1.09,2.98-5.31,2.98-6.39-0.01L673.56,64.59    c-0.49-1.35-1.76-2.24-3.2-2.24H631.8c-2.39,0-4.04,2.41-3.16,4.64c4.45,11.33,67.16,170.71,71.76,182.29    c0.51,1.29,1.77,2.14,3.16,2.14c10.28,0,29.34,0,39.26,0c1.39,0,2.64-0.85,3.16-2.14c7.9-19.89,63.09-158.86,72.4-182.29    C819.26,64.75,817.62,62.33,815.22,62.33z"/>
	</g>
</g>
<link xmlns=""/><link xmlns=""/></svg>